<svg width="31" height="30" viewBox="0 0 31 30" fill="none" xmlns="http://www.w3.org/2000/svg">
<g clip-path="url(#clip0)">
<path d="M15.9697 19V17C15.9697 15.9391 15.5738 14.9217 14.8691 14.1716C14.1644 13.4214 13.2087 13 12.2121 13H4.69697C3.7004 13 2.74464 13.4214 2.03996 14.1716C1.33528 14.9217 0.939392 15.9391 0.939392 17V19" stroke="#DDE2FF" stroke-width="2" stroke-linecap="round" stroke-linejoin="round"/>
<path d="M8.45454 9C10.5298 9 12.2121 7.20914 12.2121 5C12.2121 2.79086 10.5298 1 8.45454 1C6.37928 1 4.69696 2.79086 4.69696 5C4.69696 7.20914 6.37928 9 8.45454 9Z" stroke="#DDE2FF" stroke-width="2" stroke-linecap="round" stroke-linejoin="round"/>
<path d="M19.7272 9C20.246 9 20.6666 8.55228 20.6666 8C20.6666 7.44772 20.246 7 19.7272 7C19.2084 7 18.7878 7.44772 18.7878 8C18.7878 8.55228 19.2084 9 19.7272 9Z" stroke="#DDE2FF" stroke-width="0.7" stroke-linecap="round" stroke-linejoin="round"/>
<path d="M22.0444 8.99992C22.0027 9.10046 21.9903 9.21198 22.0087 9.32011C22.0271 9.42825 22.0755 9.52803 22.1477 9.60658L22.1665 9.62658C22.2247 9.6885 22.2709 9.76203 22.3025 9.84296C22.334 9.92389 22.3502 10.0106 22.3502 10.0983C22.3502 10.1859 22.334 10.2726 22.3025 10.3535C22.2709 10.4345 22.2247 10.508 22.1665 10.5699C22.1084 10.6319 22.0393 10.6811 21.9633 10.7146C21.8872 10.7482 21.8057 10.7654 21.7234 10.7654C21.6411 10.7654 21.5596 10.7482 21.4836 10.7146C21.4076 10.6811 21.3385 10.6319 21.2804 10.5699L21.2616 10.5499C21.1878 10.4731 21.094 10.4215 20.9925 10.4019C20.8909 10.3823 20.7861 10.3955 20.6917 10.4399C20.5991 10.4822 20.5201 10.5523 20.4644 10.6418C20.4088 10.7312 20.3789 10.836 20.3785 10.9433V10.9999C20.3785 11.1767 20.3126 11.3463 20.1951 11.4713C20.0777 11.5963 19.9184 11.6666 19.7523 11.6666C19.5862 11.6666 19.4269 11.5963 19.3094 11.4713C19.192 11.3463 19.126 11.1767 19.126 10.9999V10.9699C19.1236 10.8596 19.09 10.7526 19.0297 10.6628C18.9694 10.5731 18.8851 10.5047 18.7878 10.4666C18.6934 10.4222 18.5886 10.409 18.487 10.4286C18.3855 10.4482 18.2917 10.4997 18.2179 10.5766L18.1991 10.5966C18.141 10.6586 18.0719 10.7077 17.9959 10.7413C17.9199 10.7748 17.8384 10.7921 17.7561 10.7921C17.6738 10.7921 17.5923 10.7748 17.5162 10.7413C17.4402 10.7077 17.3711 10.6586 17.313 10.5966C17.2548 10.5347 17.2086 10.4611 17.177 10.3802C17.1455 10.2993 17.1293 10.2125 17.1293 10.1249C17.1293 10.0373 17.1455 9.95056 17.177 9.86962C17.2086 9.78869 17.2548 9.71517 17.313 9.65325L17.3318 9.63325C17.404 9.55469 17.4524 9.45491 17.4708 9.34678C17.4892 9.23865 17.4768 9.12712 17.4351 9.02658C17.3954 8.928 17.3295 8.84391 17.2455 8.78469C17.1615 8.72546 17.063 8.69368 16.9623 8.69325H16.909C16.7429 8.69325 16.5837 8.62301 16.4662 8.49799C16.3488 8.37297 16.2828 8.2034 16.2828 8.02659C16.2828 7.84977 16.3488 7.6802 16.4662 7.55518C16.5837 7.43016 16.7429 7.35992 16.909 7.35992H16.9372C17.0409 7.35734 17.1414 7.32162 17.2257 7.25742C17.31 7.19322 17.3743 7.1035 17.41 6.99992C17.4517 6.89938 17.4642 6.78785 17.4457 6.67972C17.4273 6.57159 17.3789 6.47181 17.3067 6.39325L17.2879 6.37325C17.2297 6.31134 17.1835 6.23781 17.152 6.15688C17.1205 6.07595 17.1043 5.9892 17.1043 5.90159C17.1043 5.81397 17.1205 5.72722 17.152 5.64629C17.1835 5.56536 17.2297 5.49183 17.2879 5.42992C17.3461 5.36793 17.4152 5.31876 17.4912 5.28521C17.5672 5.25166 17.6487 5.23439 17.731 5.23439C17.8133 5.23439 17.8948 5.25166 17.9708 5.28521C18.0469 5.31876 18.1159 5.36793 18.1741 5.42992L18.1929 5.44992C18.2667 5.52676 18.3604 5.57831 18.462 5.59792C18.5636 5.61753 18.6683 5.60429 18.7628 5.55992H18.7878C18.8804 5.51766 18.9594 5.4475 19.0151 5.35807C19.0707 5.26864 19.1006 5.16385 19.101 5.05659V4.99992C19.101 4.82311 19.1669 4.65354 19.2844 4.52851C19.4018 4.40349 19.5611 4.33325 19.7272 4.33325C19.8933 4.33325 20.0526 4.40349 20.1701 4.52851C20.2875 4.65354 20.3535 4.82311 20.3535 4.99992V5.02992C20.3539 5.13718 20.3837 5.24198 20.4394 5.33141C20.495 5.42084 20.574 5.491 20.6666 5.53325C20.7611 5.57762 20.8658 5.59086 20.9674 5.57125C21.069 5.55165 21.1627 5.5001 21.2365 5.42325L21.2553 5.40325C21.3135 5.34127 21.3825 5.29209 21.4586 5.25855C21.5346 5.225 21.6161 5.20773 21.6984 5.20773C21.7807 5.20773 21.8622 5.225 21.9382 5.25855C22.0142 5.29209 22.0833 5.34127 22.1415 5.40325C22.1997 5.46517 22.2459 5.53869 22.2774 5.61963C22.3089 5.70056 22.3251 5.78731 22.3251 5.87492C22.3251 5.96253 22.3089 6.04928 22.2774 6.13021C22.2459 6.21114 22.1997 6.28467 22.1415 6.34659L22.1227 6.36659C22.0505 6.44514 22.0021 6.54492 21.9836 6.65306C21.9652 6.76119 21.9777 6.87271 22.0193 6.97325V6.99992C22.059 7.09851 22.1249 7.18259 22.209 7.24182C22.293 7.30104 22.3914 7.33282 22.4922 7.33325H22.5454C22.7115 7.33325 22.8708 7.40349 22.9882 7.52851C23.1057 7.65354 23.1717 7.82311 23.1717 7.99992C23.1717 8.17673 23.1057 8.3463 22.9882 8.47132C22.8708 8.59635 22.7115 8.66659 22.5454 8.66659H22.5172C22.4165 8.66701 22.318 8.6988 22.234 8.75802C22.15 8.81725 22.0841 8.90133 22.0444 8.99992Z" stroke="#DDE2FF" stroke-width="0.7" stroke-linecap="round" stroke-linejoin="round"/>
</g>
<defs>
<clipPath id="clip0">
<rect width="31" height="30" fill="white"/>
</clipPath>
</defs>
</svg>
