<svg width="315" height="51" viewBox="0 0 315 51" fill="none" xmlns="http://www.w3.org/2000/svg">
<g clip-path="url(#clip0)">
<path d="M0 51.6061V0H4.63041L4.74066 0.165404L5.5124 1.54377L19.6241 1.48864C34.8824 1.92971 38.256 10.9351 38.0355 15.3826V38.484C37.1535 49.2904 25.0263 51.7347 19.0729 51.6061H0Z" fill="#2B94F9"/>
<path d="M41.8105 38.2311C41.8105 35.9117 42.2571 33.8443 43.1503 32.0291C44.0435 30.2139 45.3257 28.8093 46.9969 27.8152C48.6825 26.8211 50.6346 26.3241 52.8532 26.3241C56.0082 26.3241 58.5798 27.2894 60.5679 29.2198C62.5704 31.1503 63.6869 33.7723 63.9174 37.0858L63.9606 38.685C63.9606 42.2722 62.9594 45.1535 60.9569 47.3289C58.9544 49.4899 56.2675 50.5704 52.8964 50.5704C49.5252 50.5704 46.8312 49.4899 44.8143 47.3289C42.8118 45.1679 41.8105 42.229 41.8105 38.5121V38.2311ZM48.0558 38.685C48.0558 40.9036 48.4736 42.6035 49.3092 43.7849C50.1447 44.9518 51.3405 45.5353 52.8964 45.5353C54.4091 45.5353 55.5904 44.959 56.4404 43.8065C57.2904 42.6396 57.7154 40.7811 57.7154 38.2311C57.7154 36.0558 57.2904 34.3702 56.4404 33.1744C55.5904 31.9787 54.3947 31.3808 52.8532 31.3808C51.3261 31.3808 50.1447 31.9787 49.3092 33.1744C48.4736 34.3558 48.0558 36.1926 48.0558 38.685ZM73.6635 26.7563L73.858 29.3711C75.5147 27.3398 77.7549 26.3241 80.5786 26.3241C83.5896 26.3241 85.6569 27.5127 86.7806 29.8897C88.423 27.5127 90.7641 26.3241 93.8039 26.3241C96.3394 26.3241 98.2267 27.0661 99.4656 28.5499C100.705 30.0194 101.324 32.238 101.324 35.2058V50.1382H95.0572V35.2274C95.0572 33.902 94.7979 32.9367 94.2793 32.3317C93.7606 31.7122 92.8458 31.4024 91.5348 31.4024C89.662 31.4024 88.3654 32.2956 87.645 34.0821L87.6667 50.1382H81.4214V35.249C81.4214 33.8948 81.1549 32.9151 80.6218 32.31C80.0888 31.705 79.1812 31.4024 77.899 31.4024C76.127 31.4024 74.8448 32.1372 74.0524 33.6066V50.1382H67.8072V26.7563H73.6635ZM124.641 21.0081V26.7563H128.639V31.3376H124.641V43.0069C124.641 43.8713 124.807 44.4908 125.138 44.8654C125.47 45.2399 126.103 45.4272 127.04 45.4272C127.731 45.4272 128.344 45.3768 128.877 45.276V50.0085C127.652 50.3831 126.392 50.5704 125.095 50.5704C120.715 50.5704 118.482 48.359 118.396 43.9362V31.3376H114.982V26.7563H118.396V21.0081H124.641ZM141.843 45.5353C142.995 45.5353 143.932 45.2183 144.652 44.5844C145.372 43.9506 145.747 43.1078 145.776 42.0561H151.632C151.617 43.6408 151.185 45.0959 150.335 46.4213C149.485 47.7323 148.318 48.7552 146.834 49.4899C145.365 50.2102 143.737 50.5704 141.951 50.5704C138.608 50.5704 135.972 49.5115 134.041 47.3937C132.111 45.2616 131.146 42.3226 131.146 38.5769V38.1663C131.146 34.5647 132.104 31.6906 134.02 29.544C135.936 27.3974 138.565 26.3241 141.907 26.3241C144.832 26.3241 147.173 27.1597 148.931 28.8309C150.703 30.4876 151.603 32.699 151.632 35.4651H145.776C145.747 34.2549 145.372 33.2753 144.652 32.5261C143.932 31.7626 142.981 31.3808 141.799 31.3808C140.344 31.3808 139.242 31.9139 138.493 32.98C137.758 34.0316 137.391 35.746 137.391 38.1231V38.7714C137.391 41.1773 137.758 42.9061 138.493 43.9578C139.228 45.0094 140.344 45.5353 141.843 45.5353ZM161.291 29.3063C162.948 27.3182 165.03 26.3241 167.537 26.3241C172.608 26.3241 175.179 29.2703 175.251 35.1625V50.1382H169.006V35.3354C169.006 33.9956 168.718 33.0088 168.142 32.3749C167.566 31.7266 166.607 31.4024 165.268 31.4024C163.438 31.4024 162.113 32.1084 161.291 33.5202V50.1382H155.046V16.9454H161.291V29.3063ZM178.99 38.2311C178.99 35.9117 179.437 33.8443 180.33 32.0291C181.223 30.2139 182.505 28.8093 184.176 27.8152C185.862 26.8211 187.814 26.3241 190.033 26.3241C193.188 26.3241 195.759 27.2894 197.747 29.2198C199.75 31.1503 200.866 33.7723 201.097 37.0858L201.14 38.685C201.14 42.2722 200.139 45.1535 198.136 47.3289C196.134 49.4899 193.447 50.5704 190.076 50.5704C186.705 50.5704 184.011 49.4899 181.994 47.3289C179.991 45.1679 178.99 42.229 178.99 38.5121V38.2311ZM185.235 38.685C185.235 40.9036 185.653 42.6035 186.489 43.7849C187.324 44.9518 188.52 45.5353 190.076 45.5353C191.588 45.5353 192.77 44.959 193.62 43.8065C194.47 42.6396 194.895 40.7811 194.895 38.2311C194.895 36.0558 194.47 34.3702 193.62 33.1744C192.77 31.9787 191.574 31.3808 190.033 31.3808C188.505 31.3808 187.324 31.9787 186.489 33.1744C185.653 34.3558 185.235 36.1926 185.235 38.685ZM214.711 45.5353C215.864 45.5353 216.8 45.2183 217.52 44.5844C218.241 43.9506 218.615 43.1078 218.644 42.0561H224.5C224.486 43.6408 224.054 45.0959 223.204 46.4213C222.354 47.7323 221.187 48.7552 219.703 49.4899C218.233 50.2102 216.606 50.5704 214.819 50.5704C211.477 50.5704 208.84 49.5115 206.91 47.3937C204.979 45.2616 204.014 42.3226 204.014 38.5769V38.1663C204.014 34.5647 204.972 31.6906 206.888 29.544C208.804 27.3974 211.434 26.3241 214.776 26.3241C217.7 26.3241 220.041 27.1597 221.799 28.8309C223.571 30.4876 224.471 32.699 224.5 35.4651H218.644C218.615 34.2549 218.241 33.2753 217.52 32.5261C216.8 31.7626 215.849 31.3808 214.668 31.3808C213.213 31.3808 212.111 31.9139 211.362 32.98C210.627 34.0316 210.259 35.746 210.259 38.1231V38.7714C210.259 41.1773 210.627 42.9061 211.362 43.9578C212.096 45.0094 213.213 45.5353 214.711 45.5353ZM234.16 29.3063C235.817 27.3182 237.898 26.3241 240.405 26.3241C245.476 26.3241 248.048 29.2703 248.12 35.1625V50.1382H241.875V35.3354C241.875 33.9956 241.587 33.0088 241.01 32.3749C240.434 31.7266 239.476 31.4024 238.136 31.4024C236.306 31.4024 234.981 32.1084 234.16 33.5202V50.1382H227.915V16.9454H234.16V29.3063ZM251.858 38.2311C251.858 35.9117 252.305 33.8443 253.198 32.0291C254.091 30.2139 255.374 28.8093 257.045 27.8152C258.73 26.8211 260.682 26.3241 262.901 26.3241C266.056 26.3241 268.628 27.2894 270.616 29.2198C272.618 31.1503 273.735 33.7723 273.965 37.0858L274.008 38.685C274.008 42.2722 273.007 45.1535 271.005 47.3289C269.002 49.4899 266.315 50.5704 262.944 50.5704C259.573 50.5704 256.879 49.4899 254.862 47.3289C252.86 45.1679 251.858 42.229 251.858 38.5121V38.2311ZM258.104 38.685C258.104 40.9036 258.521 42.6035 259.357 43.7849C260.193 44.9518 261.388 45.5353 262.944 45.5353C264.457 45.5353 265.638 44.959 266.488 43.8065C267.338 42.6396 267.763 40.7811 267.763 38.2311C267.763 36.0558 267.338 34.3702 266.488 33.1744C265.638 31.9787 264.443 31.3808 262.901 31.3808C261.374 31.3808 260.193 31.9787 259.357 33.1744C258.521 34.3558 258.104 36.1926 258.104 38.685ZM290.994 32.6126C290.144 32.4973 289.395 32.4397 288.746 32.4397C286.384 32.4397 284.835 33.2393 284.1 34.8384V50.1382H277.855V26.7563H283.755L283.927 29.544C285.181 27.3974 286.917 26.3241 289.135 26.3241C289.827 26.3241 290.475 26.4178 291.08 26.605L290.994 32.6126ZM292.269 38.2311C292.269 35.9117 292.715 33.8443 293.609 32.0291C294.502 30.2139 295.784 28.8093 297.455 27.8152C299.141 26.8211 301.093 26.3241 303.311 26.3241C306.467 26.3241 309.038 27.2894 311.026 29.2198C313.029 31.1503 314.145 33.7723 314.376 37.0858L314.419 38.685C314.419 42.2722 313.418 45.1535 311.415 47.3289C309.413 49.4899 306.726 50.5704 303.355 50.5704C299.984 50.5704 297.29 49.4899 295.273 47.3289C293.27 45.1679 292.269 42.229 292.269 38.5121V38.2311ZM298.514 38.685C298.514 40.9036 298.932 42.6035 299.767 43.7849C300.603 44.9518 301.799 45.5353 303.355 45.5353C304.867 45.5353 306.049 44.959 306.899 43.8065C307.749 42.6396 308.174 40.7811 308.174 38.2311C308.174 36.0558 307.749 34.3702 306.899 33.1744C306.049 31.9787 304.853 31.3808 303.311 31.3808C301.784 31.3808 300.603 31.9787 299.767 33.1744C298.932 34.3558 298.514 36.1926 298.514 38.685Z" fill="#2B94F9"/>
<path fill-rule="evenodd" clip-rule="evenodd" d="M10.1609 51.6753L12.4003 18.4381C13.5215 17.9073 14.6428 17.3759 15.7635 16.8445L20.1828 16.7075L23.6921 10.9562L24.7319 21.2269C25.5547 21.7684 26.3775 22.3103 27.2002 22.8521C27.7637 23.2232 28.3272 23.5944 28.8905 23.9653C29.0652 24.8736 29.2731 26.6311 28.631 28.621C27.4373 32.3227 24.2712 33.835 23.6921 34.099L25.3818 35.3309L26.1825 50.7347C24.0394 51.3914 21.9995 51.667 20.3088 51.6753H10.1609Z" fill="white"/>
<path d="M27.3313 24.2371H23.5625C23.48 24.5712 23.3811 25.1793 23.5625 25.8805C23.7535 26.6202 25.3618 27.7866 25.4601 27.8323C25.5444 27.8024 26.9263 27.0609 27.2016 26.4283C27.6454 25.4064 27.3993 24.4694 27.3313 24.2371Z" fill="#211915"/>
<path d="M27.3313 24.2371H23.5625C23.48 24.5712 23.3811 25.1793 23.5625 25.8805C23.7535 26.6202 25.3618 27.7866 25.4601 27.8323C25.5444 27.8024 26.9263 27.0609 27.2016 26.4283C27.6454 25.4064 27.3993 24.4694 27.3313 24.2371Z" stroke="#211915" stroke-width="0.207899" stroke-miterlimit="10"/>
<path d="M14.7567 22.731C14.7567 23.9407 15.2365 24.9216 15.8291 24.9216C16.4212 24.9216 16.9015 23.9407 16.9015 22.731C16.9015 21.5207 16.4212 20.5398 15.8291 20.5398C15.2365 20.5398 14.7567 21.5207 14.7567 22.731Z" fill="#211915"/>
<path d="M14.7567 22.731C14.7567 23.9407 15.2365 24.9216 15.8291 24.9216C16.4212 24.9216 16.9015 23.9407 16.9015 22.731C16.9015 21.5207 16.4212 20.5398 15.8291 20.5398C15.2365 20.5398 14.7567 21.5207 14.7567 22.731Z" stroke="#211915" stroke-width="0.207899" stroke-miterlimit="10"/>
<path d="M20.313 22.731C20.313 23.9407 20.7928 24.9216 21.3854 24.9216C21.9775 24.9216 22.4573 23.9407 22.4573 22.731C22.4573 21.5207 21.9775 20.5398 21.3854 20.5398C20.7928 20.5398 20.313 21.5207 20.313 22.731Z" fill="#211915"/>
<path d="M20.313 22.731C20.313 23.9407 20.7928 24.9216 21.3854 24.9216C21.9775 24.9216 22.4573 23.9407 22.4573 22.731C22.4573 21.5207 21.9775 20.5398 21.3854 20.5398C20.7928 20.5398 20.313 21.5207 20.313 22.731Z" stroke="#211915" stroke-width="0.207899" stroke-miterlimit="10"/>
<path d="M7.17084 11.7128C7.74663 11.0983 8.65386 10.2924 9.94084 9.6902C11.152 9.1225 12.271 8.93697 13.0726 8.87903C13.8956 10.8402 14.718 12.8002 15.5404 14.7614C15.6763 15.0857 15.8123 15.4093 15.9482 15.7335C15.5741 16.3141 14.75 17.4033 13.3018 18.0154C12.2732 18.4497 11.3233 18.4772 10.7138 18.4368C9.53301 16.1953 8.3522 13.9538 7.17084 11.7128Z" fill="white"/>
<path d="M7.17084 11.7128C7.74663 11.0983 8.65386 10.2924 9.94084 9.6902C11.152 9.1225 12.271 8.93697 13.0726 8.87903C13.8956 10.8402 14.718 12.8002 15.5404 14.7614C15.6763 15.0857 15.8123 15.4093 15.9482 15.7335C15.5741 16.3141 14.75 17.4033 13.3018 18.0154C12.2732 18.4497 11.3233 18.4772 10.7138 18.4368C9.53301 16.1953 8.3522 13.9538 7.17084 11.7128Z" stroke="white" stroke-width="0.207899" stroke-miterlimit="10"/>
<path d="M10.3036 17.6353C8.96771 18.5477 8.7402 18.8456 8.79637 19.133C8.91996 19.765 10.3727 20.1092 11.3018 20.1607C12.6191 20.235 13.5657 19.7621 14.3448 19.3589C15.2374 18.8983 17.0772 17.9127 17.6608 15.8544C17.758 15.512 17.9395 14.8442 17.6625 14.5282C17.3625 14.1852 16.6879 14.4398 15.6408 14.8782C12.6354 16.1365 11.3877 16.8944 10.3036 17.6353Z" fill="white"/>
<path d="M10.3036 17.6353C8.96771 18.5477 8.7402 18.8456 8.79637 19.133C8.91996 19.765 10.3727 20.1092 11.3018 20.1607C12.6191 20.235 13.5657 19.7621 14.3448 19.3589C15.2374 18.8983 17.0772 17.9127 17.6608 15.8544C17.758 15.512 17.9395 14.8442 17.6625 14.5282C17.3625 14.1852 16.6879 14.4398 15.6408 14.8782C12.6354 16.1365 11.3877 16.8944 10.3036 17.6353Z" stroke="white" stroke-width="0.207899" stroke-miterlimit="10"/>
<path d="M9.7536 16.6144C10.5586 16.4581 11.5765 16.1661 12.6668 15.5996C13.7314 15.0453 14.5515 14.3922 15.1487 13.828C15.4155 14.463 15.6818 15.098 15.948 15.7336C15.5964 16.2843 14.8481 17.2787 13.5449 17.9049C12.3983 18.4556 11.3288 18.4778 10.7136 18.4369L9.7536 16.6144Z" fill="black"/>
<path d="M9.7536 16.6144C10.5586 16.4581 11.5765 16.1661 12.6668 15.5996C13.7314 15.0453 14.5515 14.3922 15.1487 13.828C15.4155 14.463 15.6818 15.098 15.948 15.7336C15.5964 16.2843 14.8481 17.2787 13.5449 17.9049C12.3983 18.4556 11.3288 18.4778 10.7136 18.4369L9.7536 16.6144Z" stroke="black" stroke-width="0.207899" stroke-miterlimit="10"/>
<path d="M16.2482 33.692C16.6544 33.4632 17.4307 34.0016 17.6987 34.1877C17.8695 34.3065 18.0346 34.4511 18.0436 34.4593C18.2784 34.6665 18.4498 34.8684 18.5655 35.0188C18.643 35.2224 18.77 35.6479 18.5958 36.0418C18.5312 36.1887 18.4138 36.3561 17.5324 36.8301C16.8403 37.2029 16.4915 37.3873 16.3252 37.3048C16.0359 37.1608 16.0174 36.6154 15.9949 35.5303C15.9724 34.4125 15.9668 33.8506 16.2482 33.692Z" fill="black"/>
<path d="M21.6179 33.692C21.2117 33.4632 20.4359 34.0016 20.168 34.1877C19.9967 34.3065 19.8321 34.4511 19.8225 34.4593C19.5883 34.6665 19.4169 34.8684 19.3006 35.0188C19.2231 35.2224 19.0967 35.6479 19.2703 36.0418C19.3355 36.1887 19.4529 36.3561 20.3343 36.8301C21.0258 37.2029 21.3752 37.3873 21.5415 37.3048C21.8308 37.1608 21.8488 36.6154 21.8712 35.5303C21.8943 34.4125 21.8999 33.8506 21.6179 33.692Z" fill="black"/>
<path d="M18.5368 34.9743H19.5064V36.0208H18.5368V34.9743Z" fill="black"/>
</g>
<defs>
<clipPath id="clip0">
<rect width="315" height="51" fill="white"/>
</clipPath>
</defs>
</svg>
