<svg width="31" height="30" viewBox="0 0 31 30" fill="none" xmlns="http://www.w3.org/2000/svg">
<path opacity="0.4" d="M18.0871 15.3321L16.5062 14.3711C16.6658 13.4649 16.6658 12.5352 16.5062 11.6289L18.0871 10.668C18.2689 10.5586 18.3505 10.3321 18.2912 10.1211C17.8793 8.7305 17.1779 7.47269 16.2613 6.42582C16.1203 6.26566 15.8902 6.2266 15.7121 6.33597L14.1312 7.29691C13.467 6.69535 12.7025 6.2305 11.875 5.92582V4.00785C11.875 3.7891 11.7302 3.59769 11.5261 3.55082C10.1642 3.23051 8.76891 3.24613 7.47379 3.55082C7.26969 3.59769 7.12497 3.7891 7.12497 4.00785V5.92972C6.30114 6.23832 5.53669 6.70316 4.86872 7.30082L3.29157 6.33988C3.10973 6.2305 2.88337 6.26566 2.74235 6.42972C1.82575 7.47269 1.12438 8.7305 0.712471 10.125C0.649385 10.336 0.734736 10.5625 0.916572 10.6719L2.49743 11.6328C2.33786 12.5391 2.33786 13.4688 2.49743 14.375L0.916572 15.336C0.734736 15.4453 0.653096 15.6719 0.712471 15.8828C1.12438 17.2735 1.82575 18.5313 2.74235 19.5782C2.88337 19.7383 3.11345 19.7774 3.29157 19.668L4.87243 18.7071C5.53669 19.3086 6.30114 19.7735 7.12868 20.0782V22C7.12868 22.2188 7.2734 22.4102 7.47751 22.4571C8.83942 22.7774 10.2347 22.7618 11.5298 22.4571C11.7339 22.4102 11.8787 22.2188 11.8787 22V20.0782C12.7025 19.7696 13.467 19.3047 14.1349 18.7071L15.7158 19.668C15.8976 19.7774 16.124 19.7422 16.265 19.5782C17.1816 18.5352 17.883 17.2774 18.2949 15.8828C18.3505 15.668 18.2689 15.4414 18.0871 15.3321ZM9.49997 16.125C7.86344 16.125 6.53122 14.7227 6.53122 13C6.53122 11.2774 7.86344 9.87504 9.49997 9.87504C11.1365 9.87504 12.4687 11.2774 12.4687 13C12.4687 14.7227 11.1365 16.125 9.49997 16.125Z" fill="#DDE2FF"/>
</svg>
