<svg width="33" height="30" viewBox="0 0 33 30" fill="none" xmlns="http://www.w3.org/2000/svg">
<path fill-rule="evenodd" clip-rule="evenodd" d="M2.50482 24.6318L3.86599 5.07215C4.48047 4.79051 5.09495 4.50856 5.70912 4.22661L8.131 4.15394L10.0542 1.10247L10.624 6.55177C11.0752 6.83922 11.5263 7.12689 11.9774 7.41452C12.286 7.6113 12.5945 7.80805 12.903 8.0047C12.9988 8.48662 13.1127 9.41911 12.7608 10.4749C12.1066 12.4389 10.3716 13.2413 10.0542 13.3813L10.9802 14.035L11.5198 24.085C10.3085 24.4675 9.15308 24.6271 8.2001 24.6318H2.50482Z" fill="#60626E"/>
<path d="M12.0485 8.14888H9.98311C9.93785 8.32618 9.88367 8.64881 9.98311 9.02081C10.0878 9.41331 10.9692 10.0322 11.023 10.0564C11.0692 10.0406 11.8265 9.64713 11.9774 9.31146C12.2206 8.76929 12.0858 8.27215 12.0485 8.14888Z" fill="#363740"/>
<path d="M12.0485 8.14888H9.98311C9.93785 8.32618 9.88367 8.64881 9.98311 9.02081C10.0878 9.41331 10.9692 10.0322 11.023 10.0564C11.0692 10.0406 11.8265 9.64713 11.9774 9.31146C12.2206 8.76929 12.0858 8.27215 12.0485 8.14888Z" stroke="#363740" stroke-width="0.166429" stroke-miterlimit="10"/>
<path d="M5.15729 7.34944C5.15729 7.99129 5.4202 8.51172 5.74498 8.51172C6.06946 8.51172 6.33267 7.99129 6.33267 7.34944C6.33267 6.70729 6.06946 6.18686 5.74498 6.18686C5.4202 6.18686 5.15729 6.70729 5.15729 7.34944Z" fill="#363740"/>
<path d="M5.15729 7.34944C5.15729 7.99129 5.4202 8.51172 5.74498 8.51172C6.06946 8.51172 6.33267 7.99129 6.33267 7.34944C6.33267 6.70729 6.06946 6.18686 5.74498 6.18686C5.4202 6.18686 5.15729 6.70729 5.15729 7.34944Z" stroke="#363740" stroke-width="0.166429" stroke-miterlimit="10"/>
<path d="M8.20221 7.34944C8.20221 7.99129 8.46512 8.51172 8.7899 8.51172C9.11438 8.51172 9.37729 7.99129 9.37729 7.34944C9.37729 6.70729 9.11438 6.18686 8.7899 6.18686C8.46512 6.18686 8.20221 6.70729 8.20221 7.34944Z" fill="#363740"/>
<path d="M8.20221 7.34944C8.20221 7.99129 8.46512 8.51172 8.7899 8.51172C9.11438 8.51172 9.37729 7.99129 9.37729 7.34944C9.37729 6.70729 9.11438 6.18686 8.7899 6.18686C8.46512 6.18686 8.20221 6.70729 8.20221 7.34944Z" stroke="#363740" stroke-width="0.166429" stroke-miterlimit="10"/>
<path d="M1 1.50372C1.31555 1.17767 1.81273 0.750085 2.51803 0.43056C3.18176 0.129356 3.79501 0.0309221 4.23432 0.000180689C4.68532 1.04073 5.13602 2.08066 5.58672 3.12121C5.66122 3.29324 5.73572 3.46496 5.81022 3.63698C5.60519 3.94502 5.15357 4.5229 4.35992 4.8477C3.79624 5.07811 3.27566 5.0927 2.94164 5.07127C2.29453 3.88198 1.64742 2.69269 1 1.50372Z" fill="#60626E"/>
<path d="M2.71684 4.64597C1.98476 5.13007 1.86008 5.28813 1.89087 5.44059C1.95859 5.77595 2.7547 5.95854 3.26389 5.98586C3.98581 6.0253 4.50455 5.7744 4.93154 5.56045C5.42072 5.31607 6.42894 4.79316 6.7488 3.70106C6.80206 3.51941 6.9015 3.16511 6.74973 2.99742C6.58533 2.81546 6.2156 2.95054 5.64176 3.18312C3.99474 3.85073 3.311 4.25285 2.71684 4.64597Z" fill="#60626E"/>
<path d="M2.41547 4.10435C2.85662 4.02144 3.41445 3.86649 4.012 3.56591C4.59538 3.27184 5.04485 2.9253 5.3721 2.62596C5.51833 2.96288 5.66425 3.29979 5.81017 3.63702C5.61746 3.92921 5.20739 4.45679 4.49317 4.78904C3.86484 5.08124 3.27869 5.09304 2.94159 5.0713L2.41547 4.10435Z" fill="#363740"/>
<path d="M2.41547 4.10435C2.85662 4.02144 3.41445 3.86649 4.012 3.56591C4.59538 3.27184 5.04485 2.9253 5.3721 2.62596C5.51833 2.96288 5.66425 3.29979 5.81017 3.63702C5.61746 3.92921 5.20739 4.45679 4.49317 4.78904C3.86484 5.08124 3.27869 5.09304 2.94159 5.0713L2.41547 4.10435Z" stroke="#363740" stroke-width="0.166429" stroke-miterlimit="10"/>
<path d="M5.97464 13.1654C6.19722 13.044 6.62267 13.3296 6.76952 13.4284C6.86311 13.4914 6.95361 13.5681 6.95854 13.5725C7.08722 13.6824 7.18112 13.7895 7.24454 13.8693C7.28702 13.9774 7.3566 14.2031 7.26116 14.4121C7.22576 14.4901 7.16142 14.5789 6.67839 14.8304C6.29912 15.0282 6.10794 15.126 6.01681 15.0822C5.85827 15.0058 5.84811 14.7164 5.8358 14.1407C5.82348 13.5476 5.8204 13.2495 5.97464 13.1654Z" fill="#363740"/>
<path d="M8.91729 13.1654C8.69471 13.044 8.26956 13.3296 8.12272 13.4284C8.02882 13.4914 7.93862 13.5681 7.93339 13.5725C7.80501 13.6824 7.71112 13.7895 7.64739 13.8693C7.60491 13.9774 7.53564 14.2031 7.63077 14.4121C7.66648 14.4901 7.73082 14.5789 8.21384 14.8304C8.59281 15.0282 8.7843 15.126 8.87542 15.0822C9.03397 15.0058 9.04382 14.7164 9.05613 14.1407C9.06875 13.5476 9.07183 13.2495 8.91729 13.1654Z" fill="#363740"/>
<path d="M7.22882 13.8454H7.76018V14.4006H7.22882V13.8454Z" fill="#363740"/>
</svg>
