<svg width="31" height="30" viewBox="0 0 31 30" fill="none" xmlns="http://www.w3.org/2000/svg">
<path d="M13.9863 18.5391L17.2676 21V18.5391H21V7.42383H13.5762V0H0V11.1152H3.73242V13.5762L7.01367 11.1152H7.42383V18.5391H13.9863ZM19.7695 17.3086H16.0371V18.5391L14.3965 17.3086H8.6543V8.6543H19.7695V17.3086ZM6.60352 9.88477L4.96289 11.1152V9.88477H1.23047V1.23047H12.3457V7.42383H9.64973L6.80859 1.74156L3.79731 7.76397L4.89784 8.31432L5.6507 6.80859H7.96648L8.2741 7.42383H7.42383V9.88477H6.60352ZM7.35125 5.57812H6.26594L6.80859 4.49281L7.35125 5.57812Z" fill="#60626E"/>
<path d="M13.3286 13.962C12.6689 14.5176 12.0459 14.8066 11.7305 14.8066V16.0371C12.5232 16.0371 13.4756 15.457 14.1914 14.8422C14.9073 15.457 15.8596 16.0371 16.6523 16.0371V14.8066C16.3369 14.8066 15.714 14.5176 15.0542 13.962C15.4115 13.5276 15.7873 12.959 15.9516 12.3457H17.2676V11.1152H14.8066V9.88477H13.5762V11.1152H11.1152V12.3457H12.4313C12.5955 12.959 12.9714 13.5276 13.3286 13.962V13.962ZM14.1914 13.0723C13.9974 12.8227 13.8429 12.5751 13.7374 12.3452H14.6455C14.5399 12.5751 14.3854 12.8227 14.1914 13.0723Z" fill="#60626E"/>
</svg>
