<svg width="79" height="107" viewBox="0 0 79 107" fill="none" xmlns="http://www.w3.org/2000/svg">
<g clip-path="url(#clip0)">
<path d="M0 107.158V0H9.63879L9.86829 0.343456L11.4748 3.20559L40.8501 3.0911C72.6122 4.00698 79.6348 22.7062 79.1758 31.9414V79.9107C77.3398 102.35 52.0954 107.425 39.7026 107.158H0Z" fill="#2B94F9"/>
<path fill-rule="evenodd" clip-rule="evenodd" d="M20.6426 107.302L25.8131 33.1875C28.1471 32.1203 30.4812 31.052 32.814 29.9837L42.0134 29.7084L49.3184 18.1463L51.4829 38.7938C53.1952 39.8821 54.9075 40.9712 56.6196 42.0602C57.7931 42.8066 58.9665 43.5529 60.1396 44.2989C60.5033 46.1249 60.936 49.6581 59.5994 53.6584C57.1145 61.1001 50.524 64.1404 49.3184 64.671L52.8358 67.1476L54.8855 105.23C50.2845 106.679 45.8956 107.284 42.2756 107.302H20.6426Z" fill="white"/>
<path d="M56.8931 44.848H49.0478C48.8759 45.5198 48.6701 46.7422 49.0478 48.1517C49.4454 49.6389 52.7933 51.9838 52.9979 52.0756C53.1733 52.0156 56.05 50.5249 56.623 49.253C57.5467 47.1987 57.0346 45.3151 56.8931 44.848Z" fill="#211915"/>
<path d="M56.8931 44.848H49.0478C48.8759 45.5198 48.6701 46.7422 49.0478 48.1517C49.4454 49.6389 52.7933 51.9838 52.9979 52.0756C53.1733 52.0156 56.05 50.5249 56.623 49.253C57.5467 47.1987 57.0346 45.3151 56.8931 44.848Z" stroke="#211915" stroke-width="1.33333" stroke-miterlimit="10"/>
<path d="M30.7173 41.8206C30.7173 44.2526 31.7159 46.2245 32.9496 46.2245C34.1821 46.2245 35.1819 44.2526 35.1819 41.8206C35.1819 39.3875 34.1821 37.4156 32.9496 37.4156C31.7159 37.4156 30.7173 39.3875 30.7173 41.8206Z" fill="#211915"/>
<path d="M30.7173 41.8206C30.7173 44.2526 31.7159 46.2245 32.9496 46.2245C34.1821 46.2245 35.1819 44.2526 35.1819 41.8206C35.1819 39.3875 34.1821 37.4156 32.9496 37.4156C31.7159 37.4156 30.7173 39.3875 30.7173 41.8206Z" stroke="#211915" stroke-width="1.33333" stroke-miterlimit="10"/>
<path d="M42.2837 41.8206C42.2837 44.2526 43.2823 46.2245 44.516 46.2245C45.7485 46.2245 46.7471 44.2526 46.7471 41.8206C46.7471 39.3875 45.7485 37.4156 44.516 37.4156C43.2823 37.4156 42.2837 39.3875 42.2837 41.8206Z" fill="#211915"/>
<path d="M42.2837 41.8206C42.2837 44.2526 43.2823 46.2245 44.516 46.2245C45.7485 46.2245 46.7471 44.2526 46.7471 41.8206C46.7471 39.3875 45.7485 37.4156 44.516 37.4156C43.2823 37.4156 42.2837 39.3875 42.2837 41.8206Z" stroke="#211915" stroke-width="1.33333" stroke-miterlimit="10"/>
<path d="M14.9268 19.6705C16.1254 18.4351 18.0139 16.8149 20.6929 15.6043C23.214 14.463 25.5434 14.09 27.212 13.9736C28.9252 17.9162 30.6371 21.8565 32.349 25.7991C32.632 26.451 32.915 27.1016 33.198 27.7534C32.4192 28.9206 30.7038 31.1101 27.6891 32.3408C25.548 33.2138 23.5707 33.2691 22.3019 33.1879C19.8439 28.6817 17.3859 24.1755 14.9268 19.6705Z" fill="white"/>
<path d="M14.9268 19.6705C16.1254 18.4351 18.0139 16.8149 20.6929 15.6043C23.214 14.463 25.5434 14.09 27.212 13.9736C28.9252 17.9162 30.6371 21.8565 32.349 25.7991C32.632 26.451 32.915 27.1016 33.198 27.7534C32.4192 28.9206 30.7038 31.1101 27.6891 32.3408C25.548 33.2138 23.5707 33.2691 22.3019 33.1879C19.8439 28.6817 17.3859 24.1755 14.9268 19.6705Z" stroke="white" stroke-width="1.33333" stroke-miterlimit="10"/>
<path d="M21.4478 31.5762C18.6671 33.4105 18.1935 34.0093 18.3104 34.587C18.5677 35.8577 21.5916 36.5495 23.5258 36.6531C26.2679 36.8025 28.2383 35.8518 29.8602 35.0412C31.7183 34.1152 35.5479 32.1339 36.7629 27.996C36.9652 27.3077 37.3429 25.9652 36.7664 25.3299C36.142 24.6404 34.7376 25.1522 32.5579 26.0335C26.3018 28.5631 23.7047 30.0867 21.4478 31.5762Z" fill="white"/>
<path d="M21.4478 31.5762C18.6671 33.4105 18.1935 34.0093 18.3104 34.587C18.5677 35.8577 21.5916 36.5495 23.5258 36.6531C26.2679 36.8025 28.2383 35.8518 29.8602 35.0412C31.7183 34.1152 35.5479 32.1339 36.7629 27.996C36.9652 27.3077 37.3429 25.9652 36.7664 25.3299C36.142 24.6404 34.7376 25.1522 32.5579 26.0335C26.3018 28.5631 23.7047 30.0867 21.4478 31.5762Z" stroke="white" stroke-width="1.33333" stroke-miterlimit="10"/>
<path d="M20.3027 29.5243C21.9784 29.2101 24.0973 28.623 26.367 27.4841C28.583 26.3699 30.2902 25.0569 31.5333 23.9227C32.0887 25.1992 32.643 26.4758 33.1973 27.7536C32.4652 28.8607 30.9077 30.8597 28.1947 32.1186C25.8081 33.2257 23.5816 33.2704 22.3012 33.1881L20.3027 29.5243Z" fill="black"/>
<path d="M20.3027 29.5243C21.9784 29.2101 24.0973 28.623 26.367 27.4841C28.583 26.3699 30.2902 25.0569 31.5333 23.9227C32.0887 25.1992 32.643 26.4758 33.1973 27.7536C32.4652 28.8607 30.9077 30.8597 28.1947 32.1186C25.8081 33.2257 23.5816 33.2704 22.3012 33.1881L20.3027 29.5243Z" stroke="black" stroke-width="1.33333" stroke-miterlimit="10"/>
<path d="M33.8222 64.8557C34.6676 64.3957 36.2837 65.4781 36.8414 65.8523C37.1969 66.0911 37.5407 66.3817 37.5594 66.3982C38.0482 66.8147 38.4049 67.2206 38.6458 67.523C38.8071 67.9324 39.0714 68.7878 38.7089 69.5796C38.5744 69.8749 38.33 70.2114 36.4953 71.1645C35.0547 71.9139 34.3285 72.2845 33.9824 72.1186C33.3801 71.8292 33.3415 70.7327 33.2948 68.5513C33.248 66.3041 33.2363 65.1746 33.8222 64.8557Z" fill="black"/>
<path d="M45.0682 65.1119C44.2227 64.6519 42.6078 65.7343 42.05 66.1085C41.6934 66.3473 41.3508 66.6379 41.3309 66.6544C40.8433 67.0709 40.4866 67.4768 40.2446 67.7792C40.0832 68.1886 39.8201 69.044 40.1814 69.8358C40.3171 70.1311 40.5614 70.4676 42.3962 71.4206C43.8357 72.1701 44.563 72.5407 44.9091 72.3748C45.5113 72.0854 45.5488 70.9888 45.5955 68.8075C45.6435 66.5603 45.6552 65.4308 45.0682 65.1119Z" fill="black"/>
<path d="M38.5864 67.3963H40.6047V69.5H38.5864V67.3963Z" fill="black"/>
</g>
<defs>
<clipPath id="clip0">
<rect width="79" height="107" fill="white"/>
</clipPath>
</defs>
</svg>
