<svg width="184" height="42" viewBox="0 0 184 42" fill="none" xmlns="http://www.w3.org/2000/svg">
<path d="M0 34.0496V5H2.60651L2.66857 5.09311L3.10298 5.86901L11.0466 5.83797C19.6357 6.08626 21.5347 11.1555 21.4106 13.659V26.6631C20.9141 32.7461 14.0875 34.122 10.7363 34.0496H0Z" fill="#2B94F9"/>
<path fill-rule="evenodd" clip-rule="evenodd" d="M5.71973 34.0886L6.98027 15.3791C7.61144 15.0803 8.24261 14.7812 8.87346 14.482L11.3611 14.4049L13.3365 11.1675L13.9219 16.9489C14.3852 17.2539 14.8486 17.5591 15.312 17.8642C15.629 18.073 15.9459 18.2818 16.2628 18.4904C16.3611 19.0017 16.4781 19.991 16.1167 21.1111C15.4447 23.1949 13.6626 24.0462 13.3365 24.1947L14.2877 24.8882L14.7384 33.5592C13.532 33.9288 12.3838 34.0839 11.4321 34.0886H5.71973Z" fill="white"/>
<path d="M15.3851 18.6435H13.2636C13.2171 18.8316 13.1615 19.1739 13.2636 19.5685C13.3711 19.985 14.2765 20.6415 14.3318 20.6672C14.3792 20.6504 15.1571 20.233 15.3121 19.8769C15.5619 19.3017 15.4234 18.7742 15.3851 18.6435Z" fill="#211915"/>
<path d="M15.3851 18.6435H13.2636C13.2171 18.8316 13.1615 19.1739 13.2636 19.5685C13.3711 19.985 14.2765 20.6415 14.3318 20.6672C14.3792 20.6504 15.1571 20.233 15.3121 19.8769C15.5619 19.3017 15.4234 18.7742 15.3851 18.6435Z" stroke="#211915" stroke-width="0.117028" stroke-miterlimit="10"/>
<path d="M8.3067 17.7957C8.3067 18.4767 8.57675 19.0288 8.91036 19.0288C9.24365 19.0288 9.51402 18.4767 9.51402 17.7957C9.51402 17.1144 9.24365 16.5622 8.91036 16.5622C8.57675 16.5622 8.3067 17.1144 8.3067 17.7957Z" fill="#211915"/>
<path d="M8.3067 17.7957C8.3067 18.4767 8.57675 19.0288 8.91036 19.0288C9.24365 19.0288 9.51402 18.4767 9.51402 17.7957C9.51402 17.1144 9.24365 16.5622 8.91036 16.5622C8.57675 16.5622 8.3067 17.1144 8.3067 17.7957Z" stroke="#211915" stroke-width="0.117028" stroke-miterlimit="10"/>
<path d="M11.4344 17.7957C11.4344 18.4767 11.7045 19.0288 12.0381 19.0288C12.3714 19.0288 12.6414 18.4767 12.6414 17.7957C12.6414 17.1144 12.3714 16.5622 12.0381 16.5622C11.7045 16.5622 11.4344 17.1144 11.4344 17.7957Z" fill="#211915"/>
<path d="M11.4344 17.7957C11.4344 18.4767 11.7045 19.0288 12.0381 19.0288C12.3714 19.0288 12.6414 18.4767 12.6414 17.7957C12.6414 17.1144 12.3714 16.5622 12.0381 16.5622C11.7045 16.5622 11.4344 17.1144 11.4344 17.7957Z" stroke="#211915" stroke-width="0.117028" stroke-miterlimit="10"/>
<path d="M4.03656 11.5935C4.36068 11.2475 4.87137 10.7939 5.59582 10.4549C6.27759 10.1353 6.90749 10.0309 7.35873 9.99828C7.82199 11.1023 8.28493 12.2056 8.74787 13.3095C8.82439 13.4921 8.90092 13.6742 8.97744 13.8567C8.76684 14.1836 8.30295 14.7967 7.48774 15.1413C6.90875 15.3857 6.37403 15.4012 6.03094 15.3785C5.36625 14.1167 4.70156 12.8549 4.03656 11.5935Z" fill="white"/>
<path d="M4.03656 11.5935C4.36068 11.2475 4.87137 10.7939 5.59582 10.4549C6.27759 10.1353 6.90749 10.0309 7.35873 9.99828C7.82199 11.1023 8.28493 12.2056 8.74787 13.3095C8.82439 13.4921 8.90092 13.6742 8.97744 13.8567C8.76684 14.1836 8.30295 14.7967 7.48774 15.1413C6.90875 15.3857 6.37403 15.4012 6.03094 15.3785C5.36625 14.1167 4.70156 12.8549 4.03656 11.5935Z" stroke="white" stroke-width="0.117028" stroke-miterlimit="10"/>
<path d="M5.8 14.9273C5.04803 15.4409 4.91997 15.6086 4.95159 15.7704C5.02116 16.1262 5.83889 16.3199 6.36191 16.3489C7.10344 16.3907 7.63626 16.1245 8.07486 15.8976C8.57732 15.6383 9.61293 15.0835 9.94148 13.9248C9.99619 13.7321 10.0983 13.3562 9.94243 13.1783C9.77357 12.9853 9.39379 13.1286 8.80437 13.3753C7.11261 14.0836 6.41029 14.5103 5.8 14.9273Z" fill="white"/>
<path d="M5.8 14.9273C5.04803 15.4409 4.91997 15.6086 4.95159 15.7704C5.02116 16.1262 5.83889 16.3199 6.36191 16.3489C7.10344 16.3907 7.63626 16.1245 8.07486 15.8976C8.57732 15.6383 9.61293 15.0835 9.94148 13.9248C9.99619 13.7321 10.0983 13.3562 9.94243 13.1783C9.77357 12.9853 9.39379 13.1286 8.80437 13.3753C7.11261 14.0836 6.41029 14.5103 5.8 14.9273Z" stroke="white" stroke-width="0.117028" stroke-miterlimit="10"/>
<path d="M5.49042 14.3526C5.94356 14.2646 6.51654 14.1002 7.13031 13.7813C7.72954 13.4694 8.19122 13.1017 8.52736 12.7841C8.67756 13.1416 8.82745 13.499 8.97733 13.8568C8.77938 14.1668 8.35818 14.7265 7.62456 15.079C6.97916 15.389 6.37709 15.4016 6.03083 15.3785L5.49042 14.3526Z" fill="black"/>
<path d="M5.49042 14.3526C5.94356 14.2646 6.51654 14.1002 7.13031 13.7813C7.72954 13.4694 8.19122 13.1017 8.52736 12.7841C8.67756 13.1416 8.82745 13.499 8.97733 13.8568C8.77938 14.1668 8.35818 14.7265 7.62456 15.079C6.97916 15.389 6.37709 15.4016 6.03083 15.3785L5.49042 14.3526Z" stroke="black" stroke-width="0.117028" stroke-miterlimit="10"/>
<path d="M9.14634 23.9656C9.37496 23.8368 9.81197 24.1399 9.96281 24.2447C10.0589 24.3116 10.1519 24.3929 10.157 24.3975C10.2891 24.5142 10.3856 24.6278 10.4507 24.7125C10.4944 24.8271 10.5658 25.0667 10.4678 25.2884C10.4314 25.3711 10.3654 25.4653 9.86921 25.7321C9.47963 25.942 9.28326 26.0458 9.18966 25.9993C9.02681 25.9183 9.01637 25.6112 9.00372 25.0004C8.99108 24.3712 8.98791 24.0549 9.14634 23.9656Z" fill="black"/>
<path d="M12.1689 23.9656C11.9403 23.8368 11.5036 24.1399 11.3528 24.2447C11.2563 24.3116 11.1637 24.3929 11.1583 24.3975C11.0264 24.5142 10.93 24.6278 10.8645 24.7125C10.8209 24.8271 10.7497 25.0667 10.8475 25.2884C10.8841 25.3711 10.9502 25.4653 11.4464 25.7321C11.8356 25.942 12.0323 26.0458 12.1259 25.9993C12.2888 25.9183 12.2989 25.6112 12.3115 25.0004C12.3245 24.3712 12.3277 24.0549 12.1689 23.9656Z" fill="black"/>
<path d="M10.4346 24.6876H10.9804V25.2766H10.4346V24.6876Z" fill="black"/>
<path d="M23.8029 26.2974C23.8029 24.9918 24.0542 23.828 24.557 22.8062C25.0598 21.7844 25.7816 20.9937 26.7223 20.4342C27.6711 19.8746 28.77 19.5948 30.0189 19.5948C31.7949 19.5948 33.2424 20.1382 34.3616 21.2248C35.4888 22.3115 36.1173 23.7875 36.247 25.6527L36.2714 26.5529C36.2714 28.5722 35.7078 30.1941 34.5805 31.4186C33.4533 32.6351 31.9408 33.2433 30.0432 33.2433C28.1455 33.2433 26.6291 32.6351 25.4937 31.4186C24.3665 30.2022 23.8029 28.5478 23.8029 26.4555V26.2974ZM27.3184 26.5529C27.3184 27.8017 27.5535 28.7587 28.0239 29.4237C28.4943 30.0805 29.1674 30.409 30.0432 30.409C30.8947 30.409 31.5597 30.0846 32.0382 29.4358C32.5166 28.7789 32.7559 27.7328 32.7559 26.2974C32.7559 25.0729 32.5166 24.124 32.0382 23.4509C31.5597 22.7778 30.8866 22.4413 30.0189 22.4413C29.1592 22.4413 28.4943 22.7778 28.0239 23.4509C27.5535 24.1159 27.3184 25.1499 27.3184 26.5529ZM41.7332 19.8381L41.8427 21.31C42.7753 20.1665 44.0363 19.5948 45.6258 19.5948C47.3207 19.5948 48.4844 20.2639 49.117 21.6019C50.0415 20.2639 51.3593 19.5948 53.0704 19.5948C54.4977 19.5948 55.5601 20.0125 56.2575 20.8477C56.9549 21.6749 57.3036 22.9238 57.3036 24.5944V33H53.776V24.6066C53.776 23.8605 53.63 23.3171 53.3381 22.9765C53.0461 22.6278 52.5311 22.4535 51.7932 22.4535C50.7389 22.4535 50.0091 22.9562 49.6036 23.9618L49.6157 33H46.1002V24.6187C46.1002 23.8564 45.9502 23.305 45.6501 22.9644C45.3501 22.6238 44.8392 22.4535 44.1174 22.4535C43.1199 22.4535 42.3982 22.867 41.9522 23.6942V33H38.4366V19.8381H41.7332ZM70.4291 16.6024V19.8381H72.6795V22.417H70.4291V28.9857C70.4291 29.4723 70.5223 29.821 70.7088 30.0319C70.8954 30.2427 71.2522 30.3482 71.7793 30.3482C72.1686 30.3482 72.5132 30.3198 72.8133 30.263V32.927C72.124 33.1379 71.4144 33.2433 70.6845 33.2433C68.2192 33.2433 66.9622 31.9985 66.9135 29.5088V22.417H64.9916V19.8381H66.9135V16.6024H70.4291ZM80.1119 30.409C80.7607 30.409 81.2878 30.2306 81.6933 29.8737C82.0988 29.5169 82.3096 29.0425 82.3258 28.4505H85.6224C85.6143 29.3426 85.371 30.1616 84.8925 30.9077C84.4141 31.6457 83.7572 32.2215 82.9219 32.6351C82.0947 33.0405 81.1783 33.2433 80.1727 33.2433C78.2913 33.2433 76.8073 32.6472 75.7206 31.4551C74.6339 30.2549 74.0905 28.6005 74.0905 26.492V26.2609C74.0905 24.2335 74.6298 22.6156 75.7084 21.4073C76.787 20.199 78.267 19.5948 80.1484 19.5948C81.7947 19.5948 83.1125 20.0652 84.1019 21.0059C85.0993 21.9385 85.6062 23.1833 85.6224 24.7404H82.3258C82.3096 24.0592 82.0988 23.5077 81.6933 23.086C81.2878 22.6562 80.7526 22.4413 80.0876 22.4413C79.2685 22.4413 78.6481 22.7413 78.2264 23.3415C77.8129 23.9335 77.6061 24.8985 77.6061 26.2366V26.6015C77.6061 27.9558 77.8129 28.929 78.2264 29.521C78.64 30.113 79.2685 30.409 80.1119 30.409ZM91.0599 21.2735C91.9925 20.1544 93.1643 19.5948 94.5754 19.5948C97.43 19.5948 98.8776 21.2532 98.9181 24.5701V33H95.4026V24.6674C95.4026 23.9132 95.2404 23.3577 94.916 23.0009C94.5916 22.6359 94.0523 22.4535 93.2982 22.4535C92.2682 22.4535 91.5221 22.8508 91.0599 23.6456V33H87.5444V14.3155H91.0599V21.2735ZM101.023 26.2974C101.023 24.9918 101.274 23.828 101.777 22.8062C102.28 21.7844 103.001 20.9937 103.942 20.4342C104.891 19.8746 105.99 19.5948 107.239 19.5948C109.015 19.5948 110.462 20.1382 111.581 21.2248C112.709 22.3115 113.337 23.7875 113.467 25.6527L113.491 26.5529C113.491 28.5722 112.927 30.1941 111.8 31.4186C110.673 32.6351 109.161 33.2433 107.263 33.2433C105.365 33.2433 103.849 32.6351 102.713 31.4186C101.586 30.2022 101.023 28.5478 101.023 26.4555V26.2974ZM104.538 26.5529C104.538 27.8017 104.773 28.7587 105.244 29.4237C105.714 30.0805 106.387 30.409 107.263 30.409C108.114 30.409 108.779 30.0846 109.258 29.4358C109.736 28.7789 109.976 27.7328 109.976 26.2974C109.976 25.0729 109.736 24.124 109.258 23.4509C108.779 22.7778 108.106 22.4413 107.239 22.4413C106.379 22.4413 105.714 22.7778 105.244 23.4509C104.773 24.1159 104.538 25.1499 104.538 26.5529ZM121.13 30.409C121.779 30.409 122.306 30.2306 122.712 29.8737C123.117 29.5169 123.328 29.0425 123.344 28.4505H126.641C126.633 29.3426 126.389 30.1616 125.911 30.9077C125.432 31.6457 124.776 32.2215 123.94 32.6351C123.113 33.0405 122.197 33.2433 121.191 33.2433C119.31 33.2433 117.826 32.6472 116.739 31.4551C115.652 30.2549 115.109 28.6005 115.109 26.492V26.2609C115.109 24.2335 115.648 22.6156 116.727 21.4073C117.805 20.199 119.285 19.5948 121.167 19.5948C122.813 19.5948 124.131 20.0652 125.12 21.0059C126.118 21.9385 126.625 23.1833 126.641 24.7404H123.344C123.328 24.0592 123.117 23.5077 122.712 23.086C122.306 22.6562 121.771 22.4413 121.106 22.4413C120.287 22.4413 119.667 22.7413 119.245 23.3415C118.831 23.9335 118.624 24.8985 118.624 26.2366V26.6015C118.624 27.9558 118.831 28.929 119.245 29.521C119.658 30.113 120.287 30.409 121.13 30.409ZM132.078 21.2735C133.011 20.1544 134.183 19.5948 135.594 19.5948C138.448 19.5948 139.896 21.2532 139.937 24.5701V33H136.421V24.6674C136.421 23.9132 136.259 23.3577 135.934 23.0009C135.61 22.6359 135.071 22.4535 134.317 22.4535C133.287 22.4535 132.541 22.8508 132.078 23.6456V33H128.563V14.3155H132.078V21.2735ZM142.041 26.2974C142.041 24.9918 142.292 23.828 142.795 22.8062C143.298 21.7844 144.02 20.9937 144.96 20.4342C145.909 19.8746 147.008 19.5948 148.257 19.5948C150.033 19.5948 151.481 20.1382 152.6 21.2248C153.727 22.3115 154.355 23.7875 154.485 25.6527L154.509 26.5529C154.509 28.5722 153.946 30.1941 152.819 31.4186C151.691 32.6351 150.179 33.2433 148.281 33.2433C146.384 33.2433 144.867 32.6351 143.732 31.4186C142.605 30.2022 142.041 28.5478 142.041 26.4555V26.2974ZM145.556 26.5529C145.556 27.8017 145.792 28.7587 146.262 29.4237C146.732 30.0805 147.405 30.409 148.281 30.409C149.133 30.409 149.798 30.0846 150.276 29.4358C150.755 28.7789 150.994 27.7328 150.994 26.2974C150.994 25.0729 150.755 24.124 150.276 23.4509C149.798 22.7778 149.125 22.4413 148.257 22.4413C147.397 22.4413 146.732 22.7778 146.262 23.4509C145.792 24.1159 145.556 25.1499 145.556 26.5529ZM164.071 23.1347C163.592 23.0698 163.171 23.0373 162.806 23.0373C161.476 23.0373 160.604 23.4874 160.19 24.3876V33H156.675V19.8381H159.996L160.093 21.4073C160.798 20.199 161.776 19.5948 163.025 19.5948C163.414 19.5948 163.779 19.6475 164.119 19.753L164.071 23.1347ZM164.788 26.2974C164.788 24.9918 165.04 23.828 165.543 22.8062C166.045 21.7844 166.767 20.9937 167.708 20.4342C168.657 19.8746 169.756 19.5948 171.004 19.5948C172.78 19.5948 174.228 20.1382 175.347 21.2248C176.474 22.3115 177.103 23.7875 177.233 25.6527L177.257 26.5529C177.257 28.5722 176.693 30.1941 175.566 31.4186C174.439 32.6351 172.926 33.2433 171.029 33.2433C169.131 33.2433 167.615 32.6351 166.479 31.4186C165.352 30.2022 164.788 28.5478 164.788 26.4555V26.2974ZM168.304 26.5529C168.304 27.8017 168.539 28.7587 169.009 29.4237C169.48 30.0805 170.153 30.409 171.029 30.409C171.88 30.409 172.545 30.0846 173.024 29.4358C173.502 28.7789 173.741 27.7328 173.741 26.2974C173.741 25.0729 173.502 24.124 173.024 23.4509C172.545 22.7778 171.872 22.4413 171.004 22.4413C170.145 22.4413 169.48 22.7778 169.009 23.4509C168.539 24.1159 168.304 25.1499 168.304 26.5529Z" fill="#2B94F9"/>
</svg>
